<?xml version="1.0" standalone="no"?>
<!DOCTYPE svg PUBLIC "-//W3C//DTD SVG 20010904//EN"
 "http://www.w3.org/TR/2001/REC-SVG-20010904/DTD/svg10.dtd">
<svg version="1.0" xmlns="http://www.w3.org/2000/svg"
 width="260.000000pt" height="280.000000pt" viewBox="0 0 260.000000 280.000000"
 preserveAspectRatio="xMidYMid meet">

<g transform="translate(0.000000,280.000000) scale(0.100000,-0.100000)"
fill="#000000" stroke="none">
<path d="M1277 2338 c-8 -18 -20 -49 -27 -68 -7 -19 -18 -48 -25 -65 -8 -16
-21 -50 -31 -75 -17 -42 -28 -64 -88 -173 -34 -63 -150 -235 -243 -362 -131
-180 -163 -257 -163 -398 0 -147 41 -260 133 -362 44 -49 70 -67 172 -117 66
-32 132 -58 147 -58 15 0 51 -5 80 -11 40 -9 75 -9 151 1 54 8 100 17 103 22
3 4 14 8 25 8 10 0 27 4 37 9 9 5 33 16 54 25 50 22 148 97 176 136 98 132
122 199 122 335 0 112 -19 177 -86 293 -49 85 -119 185 -132 190 -4 1 -69 -60
-144 -136 -139 -141 -139 -141 -162 -244 -9 -38 -62 -51 -206 -52 -118 0 -190
14 -190 38 0 17 88 99 129 120 17 10 73 26 123 36 50 11 103 27 117 37 14 9
83 75 153 146 l126 130 -46 66 c-26 37 -52 76 -59 87 -20 32 -123 242 -123
250 0 4 -8 26 -19 48 -10 23 -30 70 -44 106 -13 35 -29 66 -35 68 -6 2 -17
-12 -25 -30z m-94 -1165 c86 -3 157 -10 157 -14 0 -14 -98 -115 -139 -144 -23
-15 -41 -33 -41 -39 0 -7 -28 -12 -74 -13 l-75 -3 -20 63 c-11 34 -23 86 -27
116 l-7 54 34 -7 c19 -4 105 -9 192 -13z m417 -98 l32 -55 -29 -45 c-21 -35
-34 -45 -54 -45 -15 0 -40 -3 -56 -6 -28 -6 -32 -2 -62 51 l-32 56 28 44 c28
44 40 50 110 54 28 1 35 -5 63 -54z m-225 -15 c-5 -8 -11 -8 -17 -2 -6 6 -7
16 -3 22 5 8 11 8 17 2 6 -6 7 -16 3 -22z m-57 2 c2 -7 -3 -12 -12 -12 -9 0
-16 7 -16 16 0 17 22 14 28 -4z m50 -55 c2 -12 -3 -17 -17 -17 -12 0 -21 6
-21 13 0 31 32 34 38 4z m-68 -7 c0 -5 -4 -10 -10 -10 -5 0 -10 5 -10 10 0 6
5 10 10 10 6 0 10 -4 10 -10z m-110 -55 c0 -8 -4 -15 -9 -15 -13 0 -22 16 -14
24 11 11 23 6 23 -9z m110 -3 c28 -14 37 -25 44 -59 8 -39 7 -43 -25 -72 -26
-23 -40 -30 -59 -25 -44 10 -69 32 -76 70 -6 31 -3 40 27 70 37 39 41 39 89
16z m111 3 c-1 -15 -24 -12 -29 3 -3 9 2 13 12 10 10 -1 17 -7 17 -13z m-321
-15 c0 -5 -4 -10 -10 -10 -5 0 -10 5 -10 10 0 6 5 10 10 10 6 0 10 -4 10 -10z
m60 -24 c0 -20 -19 -31 -32 -18 -6 6 -7 15 -4 21 10 16 36 13 36 -3z"/>
</g>
</svg>
